<?xml version="1.0" standalone="no"?>
<!DOCTYPE svg PUBLIC "-//W3C//DTD SVG 20010904//EN"
 "http://www.w3.org/TR/2001/REC-SVG-20010904/DTD/svg10.dtd">
<svg version="1.0" xmlns="http://www.w3.org/2000/svg"
 width="843.000000pt" height="843.000000pt" viewBox="0 0 843.000000 843.000000"
 preserveAspectRatio="xMidYMid meet">
<metadata>
Created by potrace 1.11, written by Peter Selinger 2001-2013
</metadata>
<g transform="translate(0.000000,843.000000) scale(0.100000,-0.100000)"
fill="#000000" stroke="none">
<path d="M215 8275 l-25 -24 0 -4031 0 -4032 29 -29 c23 -22 39 -29 70 -29 39
0 45 5 323 288 155 158 321 325 368 372 47 47 310 315 585 594 275 280 538
548 585 595 47 47 236 239 420 426 184 188 484 491 665 675 182 184 598 607
925 939 327 333 636 645 685 695 50 50 239 242 420 426 380 387 729 740 1641
1665 358 363 764 775 902 915 l251 255 1 -3898 0 -3898 25 -24 c18 -19 35 -25
69 -25 37 0 48 5 70 31 l26 31 0 4029 0 4030 -25 24 c-19 20 -34 25 -73 25
l-49 0 -628 -637 c-346 -351 -668 -676 -715 -723 -47 -47 -312 -317 -590 -599
-278 -283 -541 -551 -585 -595 -44 -45 -231 -234 -415 -421 -669 -680 -942
-955 -950 -955 -7 0 -312 306 -955 960 -187 190 -374 379 -415 421 -41 42
-302 307 -580 589 -278 283 -546 555 -596 605 -49 49 -353 358 -675 685 -321
327 -602 612 -623 632 -35 33 -45 38 -88 38 -39 0 -54 -5 -73 -25z m1470
-1623 c275 -278 646 -655 825 -836 798 -811 1004 -1019 1276 -1294 159 -161
289 -297 289 -301 0 -7 -865 -891 -1175 -1201 -47 -47 -236 -238 -420 -426
-353 -358 -785 -797 -1285 -1304 -165 -168 -399 -405 -519 -529 -120 -123
-236 -239 -257 -258 l-39 -35 0 3753 1 3754 402 -408 c221 -224 627 -636 902
-915z"/>
</g>
</svg>
